# xmcd CD database file
#
# Track frame offsets:
#	150
#	19900
#	43367
#
# Disc length: 841 seconds
#
# Revision: 0
# Processed by: cddbd v1.5.1PL0 Copyright (c) Steve Scherf et al.
# Submitted via: CDex 1.60beta1
#
DISCID=23034703
DTITLE=マロン公しゃく＆のはらしんのすけ - パリジョナ大作戦
DYEAR=1994
DGENRE=Anime
TTITLE0=パジョリナ大作戦（おりじなる・ばぁじょん）
TTITLE1=Jumpin’ kids（えいご・ばぁじょん）
TTITLE2=パリジョナ大作戦（おりじなる・からおけ）
EXTD=YEAR: 1994
EXTT0=
EXTT1=
EXTT2=
PLAYORDER=
